<svg width="22" height="48" viewBox="0 0 22 48" fill="none" xmlns="http://www.w3.org/2000/svg">
<path d="M16 29.52V7C16 5.67392 15.4732 4.40215 14.5355 3.46447C13.5979 2.52678 12.3261 2 11 2C9.67392 2 8.40215 2.52678 7.46447 3.46447C6.52678 4.40215 6 5.67392 6 7V29.52C4.39455 30.5927 3.17665 32.1532 2.52614 33.9712C1.87564 35.7891 1.82704 37.7681 2.38751 39.6158C2.94799 41.4635 4.08782 43.082 5.63867 44.2322C7.18953 45.3824 9.06917 46.0033 11 46.0033C12.9308 46.0033 14.8105 45.3824 16.3613 44.2322C17.9122 43.082 19.052 41.4635 19.6125 39.6158C20.173 37.7681 20.1244 35.7891 19.4739 33.9712C18.8234 32.1532 17.6054 30.5927 16 29.52Z" stroke="white" stroke-opacity="0.6" stroke-width="4" stroke-linecap="round" stroke-linejoin="round"/>
</svg>
