<svg width="54" height="44" viewBox="0 0 54 44" fill="none" xmlns="http://www.w3.org/2000/svg">
<path d="M20.975 3.47502C21.5558 2.8908 22.2719 2.45913 23.0597 2.21837C23.8475 1.97761 24.6826 1.93523 25.4907 2.09499C26.2988 2.25476 27.055 2.61171 27.6919 3.13413C28.3288 3.65655 28.8268 4.32824 29.1416 5.0895C29.4563 5.85076 29.5782 6.678 29.4962 7.49768C29.4142 8.31736 29.1309 9.10408 28.6716 9.78792C28.2123 10.4718 27.5912 11.0315 26.8634 11.4174C26.1356 11.8034 25.3238 12.0035 24.5 12H2M28.475 40.525C29.0558 41.1092 29.7719 41.5409 30.5597 41.7817C31.3475 42.0224 32.1826 42.0648 32.9907 41.905C33.7988 41.7453 34.555 41.3883 35.1919 40.8659C35.8288 40.3435 36.3268 39.6718 36.6416 38.9105C36.9563 38.1493 37.0782 37.322 36.9962 36.5024C36.9142 35.6827 36.6309 34.896 36.1716 34.2121C35.7123 33.5283 35.0912 32.9685 34.3634 32.5826C33.6356 32.1967 32.8238 31.9966 32 32H2M41.325 11.325C42.0521 10.5997 42.9468 10.0648 43.9298 9.76755C44.9129 9.47029 45.954 9.41987 46.9612 9.62073C47.9684 9.8216 48.9105 10.2676 49.7044 10.9192C50.4982 11.5708 51.1192 12.408 51.5124 13.3567C51.9057 14.3055 52.0591 15.3365 51.9591 16.3586C51.8591 17.3808 51.5088 18.3625 50.9391 19.217C50.3694 20.0715 49.5979 20.7725 48.6928 21.2579C47.7877 21.7433 46.777 21.9982 45.75 22H2" stroke="white" stroke-opacity="0.6" stroke-width="3" stroke-linecap="round" stroke-linejoin="round"/>
</svg>
